<svg xmlns="http://www.w3.org/2000/svg" version="1.1" xmlns:xlink="http://www.w3.org/1999/xlink" width="512" height="512" x="0" y="0" viewBox="0 0 50 50" style="enable-background:new 0 0 512 512" xml:space="preserve" class=""><g><path d="m25.514 28.799-1.569-1.24C28.813 21.404 43.1 7.804 42.214 4.69c-.071-.252-.19-.384-.43-.47-4.908-1.779-8.666.855-8.823.97l-1.176-1.62c.191-.139 4.752-3.381 10.68-1.23.846.307 1.424.93 1.672 1.803 1.424 5.007-16.416 21.863-18.623 24.656z" fill="#ffffff" opacity="1" data-original="#000000" class=""></path><path d="M30.055 8.973a4.003 4.003 0 0 1-3.998-4c0-2.205 1.793-4 3.998-4 2.207 0 4 1.795 4 4 0 2.206-1.793 4-4 4zm0-6c-1.103 0-2 .897-2 2a2 2 0 1 0 2-2zM24.487 28.799l1.568-1.24C21.188 21.403 6.901 7.804 7.787 4.689c.071-.252.191-.384.43-.47 4.908-1.779 8.666.855 8.823.97l1.175-1.619c-.192-.139-4.752-3.381-10.68-1.23-.846.306-1.424.93-1.672 1.803C4.439 9.15 22.279 26.006 24.487 28.799z" fill="#ffffff" opacity="1" data-original="#000000" class=""></path><path d="M15.945 4.973c0-2.205 1.794-4 4-4s3.999 1.795 3.999 4c0 2.206-1.793 4-3.999 4s-4-1.794-4-4zm2 0c0 1.104.897 2 2 2s2-.896 2-2c0-1.103-.897-2-2-2s-2 .897-2 2zM24 26.648h2v11.289h-2z" fill="#ffffff" opacity="1" data-original="#000000" class=""></path><path d="M40.854 37.301v3.557c0 3.402-3.332 6.17-7.428 6.17-4.095 0-7.426-2.768-7.426-6.17V37.3h-2v3.558c0 4.504 4.229 8.17 9.426 8.17 5.198 0 9.428-3.666 9.428-8.17V37.3z" fill="#ffffff" opacity="1" data-original="#000000" class=""></path><path d="M41.539 39.295c-3.274 0-5.938-2.662-5.938-5.938s2.663-5.938 5.938-5.938c3.274 0 5.938 2.662 5.938 5.938s-2.664 5.938-5.938 5.938zm0-9.875c-2.171 0-3.938 1.769-3.938 3.938s1.768 3.938 3.938 3.938 3.938-1.769 3.938-3.938-1.767-3.938-3.938-3.938z" fill="#ffffff" opacity="1" data-original="#000000" class=""></path></g></svg>